<svg width="64" height="64" viewBox="0 0 64 64" fill="none" xmlns="http://www.w3.org/2000/svg">
<rect width="64" height="64" rx="12" transform="matrix(-1 0 0 1 64 0)" fill="#349A37"/>
<path d="M41.5052 29.9038V28.0809C41.5052 23.2364 37.8623 19.2272 33.172 18.6479V15.5808H30.8282V18.6478C26.1379 19.2271 22.4948 23.2363 22.4948 28.0808V29.9037H41.5052V29.9038Z" fill="#101426"/>
<path d="M19.1615 41.3979L12 43.8979V48.4195H19.1615V41.3979Z" fill="white"/>
<path d="M44.8385 38.9155L52 41.4155V35.9916L44.8385 32.6711V38.9155Z" fill="white"/>
<path d="M27.7031 41.4142C27.7031 41.2468 27.7138 41.0819 27.7325 40.9194H21.5052V48.4194H27.7031V41.4142Z" fill="white"/>
<path d="M19.1615 38.9155V32.6711L12 35.9916V41.4154L19.1615 38.9155Z" fill="white"/>
<path d="M33.9531 41.4141C33.9531 40.3371 33.077 39.4609 32 39.4609C30.923 39.4609 30.0469 40.3371 30.0469 41.4141V48.4193H33.9531V41.4141Z" fill="white"/>
<path d="M52 43.8979L44.8385 41.3979V48.4195H52V43.8979Z" fill="white"/>
<path d="M42.4948 48.4194V40.9194H36.2675C36.2862 41.0819 36.2969 41.2468 36.2969 41.4142V48.4194H42.4948Z" fill="white"/>
<path d="M21.5052 32.2476V38.5757H28.7782C29.5662 37.6824 30.7181 37.1173 32.0001 37.1173C33.2821 37.1173 34.434 37.6824 35.222 38.5757H42.4949V32.2476H21.5052Z" fill="white"/>
</svg>
