<svg width="64" height="64" viewBox="0 0 64 64" fill="none" xmlns="http://www.w3.org/2000/svg">
<rect width="64" height="64" rx="12" transform="matrix(-1 0 0 1 64 0)" fill="#349A37"/>
<g clip-path="url(#clip0_21_815)">
<path d="M38.9328 19.7073L32.6733 25.9668C32.214 26.4261 31.4706 26.4269 31.0105 25.9668L24.7509 19.7073C22.9868 17.9448 22.9851 15.089 24.7502 13.3239C26.5128 11.5596 29.3692 11.558 31.1343 13.3231L31.8419 14.0315L32.5495 13.3231C34.3027 11.5698 37.1577 11.548 38.9336 13.3239C40.6969 15.0872 40.6987 17.943 38.9328 19.7073Z" fill="#101426"/>
<path d="M16.8688 20.2257C17.535 20.3912 17.992 21.0087 17.9578 21.6947L17.264 33.3051C17.1782 33.9236 17.2424 34.5447 17.4458 35.1272L20.3085 42.9727C20.5222 43.5858 21.1924 43.9094 21.8053 43.695C22.4183 43.4806 22.7425 42.8095 22.5275 42.1975L19.6656 34.3519C19.3841 33.5517 19.8013 32.6355 20.6553 32.3581C21.4535 32.0993 22.3358 32.5571 22.6222 33.378L23.9703 37.2396C24.4552 38.6273 25.5154 39.7255 26.8805 40.2531C28.9095 41.0368 30.4426 42.8774 30.8867 45.0481L32 50.0473L23.358 51.972C22.9406 52.0649 22.5056 51.9238 22.2222 51.6036L16.4161 45.0419C14.1767 42.5099 13.118 39.133 13.512 35.7762C13.5121 35.773 13.513 35.7696 13.5131 35.7664L15.0911 21.4502C15.1967 20.5803 16.0309 20.0177 16.8688 20.2257Z" fill="white"/>
<path d="M47.1312 20.2257C46.465 20.3912 46.008 21.0087 46.0422 21.6947L46.736 33.3051C46.8218 33.9236 46.7577 34.5447 46.5542 35.1272L43.6915 42.9727C43.4778 43.5858 42.8077 43.9094 42.1947 43.6951C41.5817 43.4807 41.2575 42.8096 41.4725 42.1976L44.3345 34.3519C44.6159 33.5517 44.1987 32.6355 43.3447 32.3581C42.5465 32.0993 41.6642 32.5571 41.3778 33.378L40.0297 37.2396C39.5448 38.6272 38.4846 39.7255 37.1195 40.2531C35.0905 41.0368 33.5574 42.8774 33.1134 45.0481L32 50.0472L40.642 51.9719C41.0595 52.0648 41.4945 51.9237 41.7778 51.6035L47.5839 45.0418C49.8233 42.5098 50.882 39.133 50.488 35.7762C50.4879 35.773 50.487 35.7695 50.487 35.7663L48.9089 21.4501C48.8033 20.5803 47.9691 20.0177 47.1312 20.2257Z" fill="white"/>
</g>
<defs>
<clipPath id="clip0_21_815">
<rect width="40" height="40" fill="white" transform="translate(12 12)"/>
</clipPath>
</defs>
</svg>
