<svg width="64" height="64" viewBox="0 0 64 64" fill="none" xmlns="http://www.w3.org/2000/svg">
<rect width="64" height="64" rx="12" transform="matrix(-1 0 0 1 64 0)" fill="#349A37"/>
<path d="M37.625 44.5H30.75V45.75C30.7485 46.1694 30.7088 46.5878 30.6312 47H37.625C37.7908 47 37.9497 46.9342 38.0669 46.8169C38.1842 46.6997 38.25 46.5408 38.25 46.375V45.125C38.25 44.9592 38.1842 44.8003 38.0669 44.6831C37.9497 44.5658 37.7908 44.5 37.625 44.5Z" fill="white"/>
<path d="M37.625 40.75H30.4188C30.6288 41.5671 30.74 42.4064 30.75 43.25H37.625C37.7908 43.25 37.9497 43.1842 38.0669 43.0669C38.1842 42.9497 38.25 42.7908 38.25 42.625V41.375C38.25 41.2092 38.1842 41.0503 38.0669 40.9331C37.9497 40.8158 37.7908 40.75 37.625 40.75Z" fill="white"/>
<path d="M37.625 37H30.125C29.9592 37 29.8003 37.0658 29.6831 37.1831C29.5658 37.3003 29.5 37.4592 29.5 37.625V38.0938C29.7063 38.5562 29.8875 39.0188 30.05 39.4813C30.0742 39.4904 30.0994 39.4967 30.125 39.5H37.625C37.7908 39.5 37.9497 39.4342 38.0669 39.3169C38.1842 39.1997 38.25 39.0408 38.25 38.875V37.625C38.25 37.4592 38.1842 37.3003 38.0669 37.1831C37.9497 37.0658 37.7908 37 37.625 37Z" fill="white"/>
<path d="M24.7188 30.125L25.525 27.125L22.0875 27.6187C22.0293 27.625 21.9707 27.625 21.9125 27.6187L18.475 27.125L19.2813 30.125H24.7188Z" fill="white"/>
<path d="M18.25 32C18.25 32.1658 18.3158 32.3247 18.4331 32.4419C18.5503 32.5591 18.7092 32.625 18.875 32.625H25.125C25.2908 32.625 25.4497 32.5591 25.5669 32.4419C25.6842 32.3247 25.75 32.1658 25.75 32C25.75 31.8342 25.6842 31.6753 25.5669 31.5581C25.4497 31.4408 25.2908 31.375 25.125 31.375H18.875C18.7092 31.375 18.5503 31.4408 18.4331 31.5581C18.3158 31.6753 18.25 31.8342 18.25 32Z" fill="white"/>
<path d="M37.625 48.25H30.2562C30.0592 48.7346 29.8054 49.194 29.5 49.6187V50.125C29.5 50.2908 29.5658 50.4497 29.6831 50.5669C29.8003 50.6842 29.9592 50.75 30.125 50.75H37.625C37.7908 50.75 37.9497 50.6842 38.0669 50.5669C38.1842 50.4497 38.25 50.2908 38.25 50.125V48.875C38.25 48.7092 38.1842 48.5503 38.0669 48.4331C37.9497 48.3158 37.7908 48.25 37.625 48.25Z" fill="white"/>
<path d="M48.875 44.5H41.375C41.0298 44.5 40.75 44.7798 40.75 45.125V46.375C40.75 46.7202 41.0298 47 41.375 47H48.875C49.2202 47 49.5 46.7202 49.5 46.375V45.125C49.5 44.7798 49.2202 44.5 48.875 44.5Z" fill="white"/>
<path d="M48.875 48.25H41.375C41.0298 48.25 40.75 48.5298 40.75 48.875V50.125C40.75 50.4702 41.0298 50.75 41.375 50.75H48.875C49.2202 50.75 49.5 50.4702 49.5 50.125V48.875C49.5 48.5298 49.2202 48.25 48.875 48.25Z" fill="white"/>
<path d="M47.475 25.9687C48.4946 25.3401 49.3321 24.456 49.9046 23.4039C50.477 22.3518 50.7645 21.1684 50.7384 19.9709C50.7123 18.7735 50.3736 17.6037 49.7559 16.5775C49.1382 15.5513 48.263 14.7045 47.217 14.121C46.171 13.5374 44.9907 13.2375 43.793 13.2509C42.5954 13.2644 41.422 13.5907 40.3894 14.1975C39.3567 14.8043 38.5007 15.6705 37.9062 16.7103C37.3116 17.75 36.9992 18.9272 37 20.1249C36.9968 21.2719 37.285 22.401 37.8375 23.4062L34.5 26.7437L25.5688 17.8062C25.4507 17.6891 25.2912 17.6233 25.125 17.6233C24.9588 17.6233 24.7993 17.6891 24.6813 17.8062L21.6875 20.8062L13.6938 12.8062L12.8063 13.6937L21.2438 22.1312C21.3618 22.2482 21.5213 22.314 21.6875 22.314C21.8537 22.314 22.0132 22.2482 22.1313 22.1312L25.125 19.1312L34.0563 28.0686C34.1747 28.1848 34.3341 28.2499 34.5 28.2499C34.666 28.2499 34.8253 28.1848 34.9438 28.0686L38.5438 24.4624C39.1881 25.2548 40.0009 25.8937 40.9231 26.3326C41.8453 26.7715 42.8537 26.9995 43.875 26.9999C44.7019 26.9985 45.5217 26.846 46.2938 26.5499L50.3063 30.5686L51.1938 29.6812L47.475 25.9687ZM42 23.2499V21.9999H44.5V20.7499H43.25C42.9188 20.7489 42.6014 20.6169 42.3672 20.3827C42.133 20.1485 42.001 19.8311 42 19.4999V18.2499C42.001 17.9187 42.133 17.6013 42.3672 17.3671C42.6014 17.1329 42.9188 17.0009 43.25 16.9999V15.7499H44.5V16.9999H45.75V18.2499H43.25V19.4999H44.5C44.8312 19.5009 45.1486 19.6329 45.3828 19.8671C45.617 20.1013 45.749 20.4187 45.75 20.7499V21.9999C45.749 22.3311 45.617 22.6485 45.3828 22.8827C45.1486 23.1169 44.8312 23.2489 44.5 23.2499V24.4999H43.25V23.2499H42Z" fill="#101426"/>
<circle cx="44" cy="20" r="5" fill="#D9D9D9"/>
<rect x="39" y="15" width="10" height="10" rx="5" fill="#101426"/>
<path d="M41.0703 22.3965V17.6035H43.3281C44.4199 17.6055 45.3047 18.4902 45.3066 19.582V20.7617H44.3145V19.6543C44.3145 19.0703 43.8418 18.5957 43.2578 18.5957H42.0625V22.3945H41.0703V22.3965Z" fill="#E6F5FF"/>
<path d="M44.6719 22.3965C43.5801 22.3945 42.6934 21.5098 42.6934 20.418V19.2383H43.6855V20.3477C43.6855 20.9316 44.1582 21.4043 44.7422 21.4043H45.9375V17.6035H46.9297V22.3945H44.6719V22.3965Z" fill="#E6F5FF"/>
<path fill-rule="evenodd" clip-rule="evenodd" d="M24.9 33.875C27.4062 35.8938 29.5 40.125 29.5 43.25V45.75C29.5 48.4125 27.4563 50.75 25.125 50.75H18.875C16.5438 50.75 14.5 48.4125 14.5 45.75V43.25C14.5 40.125 16.5937 35.8938 19.1 33.875H24.9ZM19 44.791V40H21.2578C22.3496 40.002 23.2344 40.8867 23.2363 41.9785V43.1582H22.2441V42.0508C22.2441 41.4668 21.7715 40.9922 21.1875 40.9922H19.9922V44.791H19ZM20.623 42.8145C20.623 43.9063 21.5098 44.791 22.6016 44.793V44.791H24.8594V40H23.8672V43.8008H22.6719C22.0879 43.8008 21.6152 43.3281 21.6152 42.7441V41.6348H20.623V42.8145Z" fill="white"/>
</svg>
