<svg width="64" height="64" viewBox="0 0 64 64" fill="none" xmlns="http://www.w3.org/2000/svg">
<rect width="64" height="64" rx="12" transform="matrix(-1 0 0 1 64 0)" fill="#349A37"/>
<path d="M33.2305 17.0969C33.2332 17.0632 33.25 17.0344 33.25 17V15.75C33.25 15.0597 32.6909 14.5 32 14.5C31.3091 14.5 30.75 15.0597 30.75 15.75V17C30.75 17.0344 30.7668 17.0632 30.7695 17.0969C26.5273 17.6982 23.25 21.3439 23.25 25.75C23.25 26.4403 23.8091 27 24.5 27H39.5C40.1909 27 40.75 26.4403 40.75 25.75C40.75 21.3439 37.4727 17.6984 33.2305 17.0969Z" fill="#101426"/>
<path d="M19.5 28.25H44.5V33.25H19.5V28.25Z" fill="white"/>
<path d="M45.75 28.25L49.5 25.75V30.75L45.75 33.25V28.25Z" fill="white"/>
<path d="M45.75 34.5L49.5 32V38.25L45.75 40.75V34.5Z" fill="white"/>
<path d="M45.75 42L49.5 39.5V47L45.75 49.5V42Z" fill="white"/>
<path d="M18.25 28.25L14.5 25.75V30.75L18.25 33.25V28.25Z" fill="white"/>
<path d="M18.25 34.5L14.5 32V38.25L18.25 40.75V34.5Z" fill="white"/>
<path d="M18.25 42L14.5 39.5V47L18.25 49.5V42Z" fill="white"/>
<path d="M19.5 42.0004V49.5H20.75V47C20.75 46.3096 21.3096 45.75 22 45.75C22.6904 45.75 23.25 46.3096 23.25 47V49.5H24.5V47C24.5 46.3096 25.0596 45.75 25.75 45.75C26.4404 45.75 27 46.3096 27 47V49.5H28.25V42.0004H19.5Z" fill="white"/>
<path d="M35.75 42.0005V49.5H37V47C37 46.3096 37.5596 45.75 38.25 45.75C38.9404 45.75 39.5 46.3096 39.5 47V49.5H40.75V47C40.75 46.3096 41.3096 45.75 42 45.75C42.6904 45.75 43.25 46.3096 43.25 47V49.5H44.5V42.0005H35.75Z" fill="white"/>
<path d="M19.5 34.5V40.7504H20.75V40.75V40.164V39.5C20.75 38.8096 21.3096 38.25 22 38.25C22.6904 38.25 23.25 38.8096 23.25 39.5V40.1641V40.75V40.7504H24.5V40.75V39.5C24.5 38.8096 25.0596 38.25 25.75 38.25C26.4404 38.25 27 38.8096 27 39.5V40.75V40.7504H28.25V39.5C28.25 37.4321 29.9321 35.75 32 35.75C34.0679 35.75 35.75 37.4321 35.75 39.5V40.7505H37V40.75V39.5C37 38.8096 37.5596 38.25 38.25 38.25C38.9404 38.25 39.5 38.8096 39.5 39.5V40.75V40.7505H40.75V40.75V39.5C40.75 38.8096 41.3096 38.25 42 38.25C42.6904 38.25 43.25 38.8096 43.25 39.5V40.75V40.7505H44.5V34.5H19.5Z" fill="white"/>
</svg>
