<svg width="31" height="31" viewBox="0 0 31 31" fill="none" xmlns="http://www.w3.org/2000/svg">
<g clip-path="url(#clip0_149_1421)">
<path d="M15.4996 2.90625L4.71582 13.3959V28.8051H26.2833V13.3959L15.4996 2.90625Z" fill="#DFEBFA"/>
<path d="M7.27332 14.9692C7.27332 14.6014 7.42202 14.2492 7.6857 13.9927L17.2913 4.64909L15.4996 2.90625L4.71582 13.3959V28.805H7.27332V14.9692Z" fill="#B1DBFC"/>
<path d="M22.1084 2.19434V6.10524L25.5615 9.4642V2.19434H22.1084Z" fill="#695D67"/>
<path d="M24.1082 6.37098C23.9335 6.20109 23.835 5.96774 23.835 5.72404V2.19434H22.1084V6.10524L25.5615 9.4642V7.78469L24.1082 6.37098Z" fill="#544E55"/>
<path d="M29.1442 12.7624L16.4002 0.36587C15.8988 -0.121957 15.1003 -0.121957 14.5989 0.36587L1.85493 12.7624C1.34355 13.2597 1.33223 14.0776 1.82968 14.5889C2.32713 15.1003 3.14494 15.1116 3.65626 14.6142L15.3223 3.26625C15.421 3.17028 15.5781 3.17028 15.6768 3.26625L27.3429 14.6141C27.8545 15.1118 28.6722 15.1001 29.1694 14.5889C29.6669 14.0776 29.6556 13.2597 29.1442 12.7624Z" fill="#FF656F"/>
<path d="M15.3223 3.26625C15.3666 3.22314 15.4228 3.20049 15.4802 3.19607L16.6157 2.09152C16.951 1.76529 17.4189 1.65842 17.8423 1.76856L16.4002 0.36587C15.8988 -0.121957 15.1003 -0.121957 14.5989 0.36587L1.85493 12.7624C1.34355 13.2597 1.33223 14.0776 1.82968 14.5889C2.32713 15.1003 3.14494 15.1116 3.65626 14.6142L15.3223 3.26625Z" fill="#FF4756"/>
<path d="M26.563 1.93054V0.451074C26.563 0.201984 26.361 0 26.1119 0H21.5575C21.3084 0 21.1064 0.201924 21.1064 0.451074V1.9306C21.1064 2.17969 21.3084 2.38167 21.5575 2.38167H26.1119C26.361 2.38161 26.563 2.17969 26.563 1.93054Z" fill="#7B6C79"/>
<path d="M22.833 1.93054V0.451074C22.833 0.201984 23.0349 0 23.284 0H21.5575C21.3084 0 21.1064 0.201924 21.1064 0.451074V1.9306C21.1064 2.17969 21.3084 2.38167 21.5575 2.38167H23.284C23.0349 2.38161 22.833 2.17969 22.833 1.93054Z" fill="#695D67"/>
<path d="M7.21094 17.126H14.4446V28.805H7.21094V17.126Z" fill="#AB6B51"/>
<path d="M7.21094 17.126H9.55362V28.805H7.21094V17.126Z" fill="#965A44"/>
<path d="M16.5547 17.1885V25.9227C16.5547 26.1153 16.7108 26.2715 16.9035 26.2715H23.4396C23.6322 26.2715 23.7884 26.1153 23.7884 25.9227V17.1885H16.5547Z" fill="#60B8FE"/>
<path d="M18.8974 25.9227V17.1885H16.5547V25.9227C16.5547 26.1153 16.7108 26.2715 16.9035 26.2715H19.2462C19.0535 26.2715 18.8974 26.1153 18.8974 25.9227Z" fill="#23A8FE"/>
<path d="M20.6393 17.2508C20.6393 17.2296 20.6374 17.2089 20.6347 17.1885H19.7083C19.7056 17.2089 19.7037 17.2296 19.7037 17.2508V21.2934H16.5547V22.229H19.7037V26.2714H20.6394V22.229H23.7884V21.2934H20.6394V17.2508H20.6393Z" fill="#8BCAFF"/>
<path d="M16.5547 21.2939H18.8974V22.2296H16.5547V21.2939Z" fill="#60B8FE"/>
<path d="M23.4396 14.9805H16.9035C16.7108 14.9805 16.5547 15.1366 16.5547 15.3293V17.2516H23.7883V15.3293C23.7883 15.1367 23.6322 14.9805 23.4396 14.9805Z" fill="#23A8FE"/>
<path d="M19.2462 14.9805H16.9035C16.7108 14.9805 16.5547 15.1366 16.5547 15.3293V17.2517H18.8974V15.3293C18.8974 15.1367 19.0535 14.9805 19.2462 14.9805Z" fill="#0193FA"/>
<path d="M14.0958 14.9805H7.55975C7.36715 14.9805 7.21094 15.1366 7.21094 15.3293V17.2517H14.4446V15.3293C14.4446 15.1367 14.2884 14.9805 14.0958 14.9805Z" fill="#BC7C63"/>
<path d="M9.90243 14.9805H7.55975C7.36715 14.9805 7.21094 15.1366 7.21094 15.3293V17.2517H9.55362V15.3293C9.55362 15.1367 9.70977 14.9805 9.90243 14.9805Z" fill="#AB6B51"/>
<path d="M11.9238 23.2147C12.441 23.2147 12.8603 22.7955 12.8603 22.2783C12.8603 21.7611 12.441 21.3418 11.9238 21.3418C11.4066 21.3418 10.9873 21.7611 10.9873 22.2783C10.9873 22.7955 11.4066 23.2147 11.9238 23.2147Z" fill="#DFEBFA"/>
<path d="M26.7388 28.6182H4.26058C4.01149 28.6182 3.80957 28.8201 3.80957 29.0692V30.5488C3.80957 30.7979 4.01149 30.9998 4.26058 30.9998H26.7388C26.9879 30.9998 27.1899 30.7979 27.1899 30.5488V29.0692C27.1899 28.8201 26.9879 28.6182 26.7388 28.6182Z" fill="#43CB8E"/>
<path d="M6.66314 30.5488V29.0692C6.66314 28.8201 6.86507 28.6182 7.11416 28.6182H4.26058C4.01149 28.6182 3.80957 28.8201 3.80957 29.0692V30.5488C3.80957 30.7978 4.01149 30.9998 4.26058 30.9998H7.11422C6.86507 30.9998 6.66314 30.7979 6.66314 30.5488Z" fill="#00BA66"/>
</g>
<defs>
<clipPath id="clip0_149_1421">
<rect width="31" height="31" fill="white"/>
</clipPath>
</defs>
</svg>
