<svg width="27" height="27" viewBox="0 0 27 27" fill="none" xmlns="http://www.w3.org/2000/svg">
<circle cx="13.3842" cy="13.1687" r="12.6687" stroke="white"/>
<g clip-path="url(#clip0_21_2897)">
<path d="M14.356 13.4548C14.356 14.1496 13.7927 14.7129 13.0979 14.7129C12.4032 14.7129 11.8399 14.1496 11.8399 13.4548C11.8399 12.7601 12.4032 12.1968 13.0979 12.1968C13.7927 12.1968 14.356 12.7601 14.356 13.4548Z" fill="white"/>
<path d="M15.2227 9.65259H10.9733C10.0483 9.65259 9.29587 10.405 9.29587 11.33V15.5794C9.29587 16.5043 10.0483 17.2568 10.9733 17.2568H15.2227C16.1476 17.2568 16.9001 16.5043 16.9001 15.5794V11.33C16.9001 10.405 16.1476 9.65259 15.2227 9.65259ZM13.098 15.5514C11.9418 15.5514 11.0012 14.6108 11.0012 13.4547C11.0012 12.2985 11.9418 11.3579 13.098 11.3579C14.2541 11.3579 15.1947 12.2985 15.1947 13.4547C15.1947 14.6108 14.2541 15.5514 13.098 15.5514ZM15.5022 11.4698C15.2706 11.4698 15.0829 11.282 15.0829 11.0504C15.0829 10.8188 15.2706 10.6311 15.5022 10.6311C15.7338 10.6311 15.9216 10.8188 15.9216 11.0504C15.9216 11.282 15.7338 11.4698 15.5022 11.4698Z" fill="white"/>
<path d="M16.4807 6.29785H9.71521C7.63419 6.29785 5.94107 7.99097 5.94107 10.072V16.8375C5.94107 18.9185 7.63419 20.6116 9.71521 20.6116H16.4807C18.5617 20.6116 20.2548 18.9185 20.2548 16.8375V10.072C20.2548 7.99097 18.5617 6.29785 16.4807 6.29785ZM17.7387 15.5794C17.7387 16.9668 16.61 18.0955 15.2226 18.0955H10.9733C9.58591 18.0955 8.45716 16.9668 8.45716 15.5794V11.33C8.45716 9.94269 9.58591 8.81394 10.9733 8.81394H15.2226C16.61 8.81394 17.7387 9.94269 17.7387 11.33V15.5794Z" fill="white"/>
</g>
<defs>
<clipPath id="clip0_21_2897">
<rect width="14.3138" height="14.3138" fill="white" transform="translate(5.94107 6.29785)"/>
</clipPath>
</defs>
</svg>
