<svg width="46" height="35" viewBox="0 0 46 35" fill="none" xmlns="http://www.w3.org/2000/svg">
<rect x="4.18182" y="3.49023" width="36.2424" height="25.0909" fill="white"/>
<path d="M45.6616 8.22315L45.6595 8.2021C45.6205 7.83184 45.2327 4.53816 43.6317 2.86342C41.7811 0.893173 39.6831 0.653823 38.6741 0.539062C38.5906 0.529235 38.5141 0.520813 38.4457 0.511688L38.3653 0.503265C32.284 0.0610657 23.1 0.000701904 23.008 0H22.9919C22.8999 0.000701904 13.7159 0.0610657 7.57984 0.503265L7.49877 0.511688C7.4335 0.520462 7.36155 0.528534 7.28329 0.537658C6.28589 0.652771 4.21036 0.892471 2.35453 2.93361C0.829649 4.59115 0.388854 7.81394 0.343581 8.17613L0.338317 8.22315C0.32463 8.37722 0 12.045 0 15.7272V19.1693C0 22.8515 0.32463 26.5193 0.338317 26.6734L0.340774 26.6969C0.379729 27.0608 0.767179 30.2938 2.36085 31.9696C4.10086 33.8742 6.30098 34.1259 7.48439 34.2613C7.67144 34.2827 7.83288 34.3013 7.94238 34.3206L8.04872 34.335C11.56 34.6695 22.569 34.8341 23.0357 34.8407L23.0498 34.8411L23.0635 34.8407C23.1558 34.8404 32.3395 34.78 38.4207 34.3375L38.5011 34.3294C38.5776 34.3192 38.6639 34.3101 38.7587 34.3003C39.7508 34.195 41.8148 33.9764 43.6453 31.9629C45.1702 30.3054 45.611 27.0826 45.6563 26.7204L45.6616 26.6734C45.6752 26.5193 45.9999 22.8515 45.9999 19.1693V15.7272C45.9999 12.045 45.6752 8.37757 45.6616 8.22315ZM30.0684 18.6443L19.906 24.109C19.6269 24.2592 19.3237 24.334 19.0212 24.334C18.691 24.334 18.3614 24.2448 18.0642 24.0676C17.4949 23.7272 17.1552 23.1281 17.1552 22.4651V11.4396C17.1552 10.7735 17.497 10.1734 18.0698 9.83367C18.6425 9.4943 19.3336 9.48202 19.9179 9.80173L30.0804 15.3626C30.6816 15.6914 31.0536 16.3217 31.0511 17.0071C31.0487 17.6922 30.6721 18.3197 30.0684 18.6443Z" fill="#349A37"/>
</svg>
