<svg width="27" height="27" viewBox="0 0 27 27" fill="none" xmlns="http://www.w3.org/2000/svg">
<circle cx="13.5558" cy="13.1687" r="12.6687" stroke="white"/>
<g clip-path="url(#clip0_21_2891)">
<path d="M20.4263 9.01645C19.894 9.24995 19.3268 9.40471 18.7355 9.47986C19.3438 9.11665 19.8081 8.54589 20.0264 7.85793C19.4592 8.1961 18.833 8.43496 18.1656 8.56825C17.6271 7.99481 16.8595 7.63965 16.0221 7.63965C14.3975 7.63965 13.0896 8.9583 13.0896 10.5749C13.0896 10.8075 13.1093 11.0311 13.1576 11.244C10.718 11.125 8.55931 9.95579 7.10914 8.17463C6.85597 8.61388 6.70746 9.11665 6.70746 9.65789C6.70746 10.6742 7.23081 11.575 8.01091 12.0966C7.53945 12.0876 7.07694 11.9508 6.6851 11.7352C6.6851 11.7441 6.6851 11.7557 6.6851 11.7674C6.6851 13.1934 7.70227 14.3778 9.03613 14.6507C8.79727 14.716 8.53694 14.7473 8.26677 14.7473C8.0789 14.7473 7.88924 14.7366 7.71122 14.6972C8.09143 15.8593 9.17033 16.7137 10.4532 16.7414C9.45481 17.5224 8.18715 17.993 6.81482 17.993C6.57417 17.993 6.34336 17.9822 6.11255 17.9527C7.41242 18.791 8.95294 19.2696 10.6142 19.2696C16.0141 19.2696 18.9663 14.7965 18.9663 10.9193C18.9663 10.7896 18.9618 10.6643 18.9556 10.54C19.538 10.1267 20.0273 9.61047 20.4263 9.01645Z" fill="white"/>
</g>
<defs>
<clipPath id="clip0_21_2891">
<rect width="14.3138" height="14.3138" fill="white" transform="translate(6.11255 6.29785)"/>
</clipPath>
</defs>
</svg>
