<svg width="25" height="25" viewBox="0 0 33 25" fill="none" xmlns="http://www.w3.org/2000/svg">
<path d="M28.9691 0H4.03088C1.80835 0 0 2.01796 0 4.4981V20.5019C0 22.982 1.80835 25 4.03088 25H28.9691C31.1917 25 33 22.982 33 20.5019V4.49859C33.0004 2.01796 31.1921 0 28.9691 0ZM26.9995 2.9345L16.5 10.483L6.00052 2.9345H26.9995ZM28.9691 22.066H4.03088C3.25819 22.066 2.62969 21.3642 2.62969 20.5024V4.58174L15.6887 13.9526C15.7063 13.9648 15.7251 13.9731 15.7431 13.9844C15.7619 13.9961 15.7812 14.0074 15.8005 14.0181C15.9017 14.0763 16.0061 14.1233 16.1126 14.1541C16.1235 14.1575 16.1345 14.159 16.1454 14.1619C16.2625 14.1927 16.3808 14.2118 16.4991 14.2118C16.4996 14.2118 16.5 14.2118 16.5 14.2118C16.5009 14.2118 16.5013 14.2118 16.5018 14.2118C16.6201 14.2118 16.7384 14.1932 16.8554 14.1619C16.8664 14.159 16.8774 14.1575 16.8883 14.1541C16.9948 14.1233 17.0987 14.0763 17.2004 14.0181C17.2197 14.0074 17.2389 13.9961 17.2578 13.9844C17.2758 13.9731 17.2946 13.9648 17.3121 13.9526L30.3712 4.58174V20.5019C30.3707 21.3642 29.7418 22.066 28.9691 22.066Z" fill="#349A37"/>
</svg>
