<svg width="39" height="39" viewBox="0 0 39 39" fill="none" xmlns="http://www.w3.org/2000/svg">
<path d="M39 30.6423C39 31.9156 37.9679 32.9478 36.6947 32.9478H2.30534C1.03213 32.9479 0 31.9156 0 30.6423V8.35718C0 7.08389 1.03213 6.05176 2.30534 6.05176H36.6947C37.9679 6.05176 39 7.08396 39 8.35718V30.6423Z" fill="white"/>
<path d="M8.65601 19.6549L7.74028 15.262C7.58374 14.6562 7.12824 14.476 6.55908 14.4521H2.36064L2.32324 14.6529C5.59322 15.4456 7.75688 17.358 8.65601 19.6549Z" fill="#F79F1A"/>
<path d="M18.3845 14.54H15.6718L13.9775 24.4825H16.6858L18.3845 14.54Z" fill="#059BBF"/>
<path d="M10.3093 24.4726L14.5757 14.5469H11.7047L9.05062 21.3283L8.76733 20.3044C8.24708 19.0726 6.7602 17.2997 5.01465 16.1837L7.44072 24.476L10.3093 24.4726Z" fill="#059BBF"/>
<path d="M26.1219 21.2325C26.132 20.1037 25.4072 19.2428 23.8454 18.5316C22.8962 18.0723 22.3177 17.766 22.3246 17.2999C22.3246 16.8881 22.8145 16.4458 23.8761 16.4458C24.7643 16.4322 25.4038 16.6261 25.9041 16.8269L26.1492 16.9392L26.5168 14.7853C25.9791 14.5845 25.1385 14.3701 24.0873 14.3701C21.4093 14.3701 19.5243 15.7177 19.5072 17.6504C19.4902 19.0796 20.8549 19.8758 21.8823 20.3521C22.9371 20.8376 23.291 21.1483 23.2842 21.5839C23.2774 22.2499 22.4437 22.5536 21.6645 22.5536C20.579 22.5536 20.0039 22.4039 19.1121 22.0323L18.7655 21.8731L18.3848 24.1011C19.0172 24.3775 20.1876 24.6191 21.4025 24.6292C24.2504 24.6292 26.1015 23.2988 26.1219 21.2325Z" fill="#059BBF"/>
<path d="M29.3439 22.9928C29.6535 22.9928 32.4199 22.9962 32.8147 22.9962C32.8964 23.3424 33.1448 24.4865 33.1448 24.4865H35.6593L33.4646 14.5508H31.372C30.722 14.5508 30.239 14.7277 29.953 15.3741L25.9277 24.4865H28.7759C28.7757 24.4865 29.2384 23.2617 29.3439 22.9928ZM31.2016 18.1779C31.1882 18.2051 31.4263 17.6029 31.5625 17.2286L31.7461 18.086C31.7461 18.086 32.2635 20.4612 32.3722 20.958H30.123C30.3477 20.3864 31.2016 18.1779 31.2016 18.1779Z" fill="#059BBF"/>
<path d="M36.6947 6.05176H2.30534C1.03213 6.05176 0 7.08389 0 8.35718V10.7499H39V8.35718C39 7.08389 37.9679 6.05176 36.6947 6.05176Z" fill="#059BBF"/>
<path d="M36.6947 32.9481H2.30534C1.03213 32.9481 0 31.9159 0 30.6427V28.25H39V30.6427C39 31.9159 37.9679 32.9481 36.6947 32.9481Z" fill="#F79F1A"/>
<path opacity="0.15" d="M1.63899 30.6423V8.35718C1.63899 7.08389 2.67119 6.05176 3.94448 6.05176H2.30526C1.03213 6.05176 0 7.08389 0 8.35718V30.6424C0 31.9157 1.03213 32.9479 2.30534 32.9479H3.94456C2.67127 32.9479 1.63899 31.9156 1.63899 30.6423Z" fill="#202121"/>
</svg>
