<svg width="27" height="27" viewBox="0 0 27 27" fill="none" xmlns="http://www.w3.org/2000/svg">
<circle cx="13.7273" cy="13.1687" r="12.6687" stroke="white"/>
<g clip-path="url(#clip0_21_2881)">
<path d="M12.4611 14.59L14.8245 13.3191L12.4611 12.0259V14.59Z" fill="white"/>
<path d="M20.4926 10.59L20.492 10.5835C20.4799 10.4683 20.3592 9.44338 19.861 8.92226C19.2852 8.30918 18.6323 8.2347 18.3184 8.19899C18.2924 8.19593 18.2686 8.19331 18.2473 8.19047L18.2223 8.18785C16.33 8.05025 13.4722 8.03147 13.4436 8.03125H13.4385C13.4099 8.03147 10.5521 8.05025 8.64279 8.18785L8.61757 8.19047C8.59725 8.1932 8.57487 8.19571 8.55051 8.19855C8.24015 8.23437 7.59431 8.30896 7.01684 8.9441C6.54234 9.45987 6.40518 10.4627 6.39109 10.5754L6.38945 10.59C6.38519 10.638 6.28418 11.7793 6.28418 12.9251V13.9962C6.28418 15.1419 6.38519 16.2832 6.38945 16.3312L6.39022 16.3385C6.40234 16.4517 6.5229 17.4577 7.0188 17.9792C7.56024 18.5719 8.24485 18.6502 8.61309 18.6923C8.67129 18.699 8.72153 18.7048 8.7556 18.7108L8.78869 18.7152C9.88129 18.8193 13.3069 18.8705 13.4522 18.8726L13.4566 18.8727L13.4608 18.8726C13.4895 18.8725 16.3472 18.8537 18.2395 18.716L18.2645 18.7135C18.2883 18.7103 18.3152 18.7075 18.3447 18.7044C18.6534 18.6717 19.2956 18.6036 19.8653 17.9771C20.3398 17.4613 20.4769 16.4585 20.491 16.3458L20.4926 16.3312C20.4969 16.2832 20.5979 15.1419 20.5979 13.9962V12.9251C20.5979 11.7793 20.4969 10.6381 20.4926 10.59V10.59ZM15.6405 13.8328L12.4783 15.5332C12.3915 15.58 12.2971 15.6032 12.203 15.6032C12.1002 15.6032 11.9977 15.5755 11.9052 15.5203C11.7281 15.4144 11.6223 15.228 11.6223 15.0217V11.5909C11.6223 11.3836 11.7287 11.1969 11.9069 11.0912C12.0852 10.9856 12.3002 10.9818 12.482 11.0812L15.6443 12.8116C15.8313 12.9139 15.9471 13.1101 15.9463 13.3233C15.9456 13.5365 15.8284 13.7318 15.6405 13.8328V13.8328Z" fill="white"/>
</g>
<defs>
<clipPath id="clip0_21_2881">
<rect width="14.3138" height="14.3138" fill="white" transform="translate(6.28418 6.29785)"/>
</clipPath>
</defs>
</svg>
